# xmcd
#
# Track frame offsets:
#	150
#	19695
#	32035
#	41430
#	55458
#	70455
#	86930
#	101845
#	115228
#	132303
#	144778
#	154540
#	169520
#
# Disc length: 2448 seconds
#
# Revision: 0
# Processed by: cddbd v1.5.2PL0 Copyright (c) Steve Scherf et al.
# Submitted via: dBpowerAMP V4.0
#
DISCID=ad098e0d
DTITLE=The Well Oiled Sisters - Alcohol And Tears
DYEAR=1994
DGENRE=Country Rock
TTITLE0=Trouble
TTITLE1=You got my heart
TTITLE2=Dirty cowgirls
TTITLE3=Alcohol and tears
TTITLE4=Mouth
TTITLE5=I Pray For You
TTITLE6=Strange elation
TTITLE7=It ain't hard being easy
TTITLE8=Your little girl
TTITLE9=Cowgirl's prayer
TTITLE10=Scratch
TTITLE11=Guilt
TTITLE12=Blood turns to ice
EXTD=
EXTT0=
EXTT1=
EXTT2=
EXTT3=
EXTT4=
EXTT5=
EXTT6=
EXTT7=
EXTT8=
EXTT9=
EXTT10=
EXTT11=
EXTT12=
PLAYORDER=
